<?xml version="1.0" standalone="no"?>
<!DOCTYPE svg PUBLIC "-//W3C//DTD SVG 20010904//EN"
 "http://www.w3.org/TR/2001/REC-SVG-20010904/DTD/svg10.dtd">
<svg version="1.0" xmlns="http://www.w3.org/2000/svg"
 width="176.000000pt" height="176.000000pt" viewBox="0 0 176.000000 176.000000"
 preserveAspectRatio="xMidYMid meet">
<metadata>
Created by potrace 1.11, written by Peter Selinger 2001-2013
</metadata>
<g transform="translate(0.000000,176.000000) scale(0.100000,-0.100000)"
fill="#000000" stroke="none">
<path d="M433 1372 c-18 -26 -37 -60 -42 -77 -15 -43 -19 -115 -10 -147 9 -34
10 -33 -42 -6 -29 15 -60 22 -103 22 -63 0 -166 -28 -166 -45 0 -17 87 -95
127 -115 55 -26 158 -29 208 -6 l40 18 62 -51 c34 -28 83 -62 109 -75 l48 -23
-51 -22 c-127 -56 -200 -176 -198 -325 0 -54 1 -55 28 -53 41 3 114 42 168 91
66 59 100 133 102 217 2 65 2 66 27 61 14 -3 59 -13 100 -22 50 -11 128 -17
232 -18 87 0 158 -1 158 -2 0 0 -24 -17 -53 -37 -64 -44 -111 -107 -139 -185
-22 -60 -36 -216 -21 -225 15 -10 117 32 178 74 110 75 167 177 168 307 l1 72
46 1 c176 3 290 8 300 14 8 5 8 10 0 20 -9 10 -35 13 -100 11 l-89 -3 1 41 c4
113 -41 224 -119 297 -42 39 -165 104 -208 111 -18 3 -20 -4 -23 -57 -9 -152
64 -298 181 -365 l48 -28 -33 -5 c-49 -7 -445 -3 -453 5 -4 4 5 35 19 71 47
118 21 240 -76 351 -22 25 -46 46 -53 46 -13 0 -46 -68 -64 -135 -25 -91 -6
-195 49 -272 l32 -44 -27 5 c-72 13 -178 65 -262 129 l-52 39 23 32 c61 83 66
179 14 283 -18 37 -37 68 -43 70 -5 2 -25 -18 -42 -45z"/>
<path d="M630 1228 c-12 -14 -20 -35 -20 -57 1 -42 41 -148 54 -141 4 3 9 28
10 57 2 28 10 63 19 77 10 14 17 31 17 38 -1 42 -50 58 -80 26z"/>
<path d="M1015 1190 c-21 -23 -11 -61 35 -133 52 -83 81 -47 52 63 -14 53 -20
63 -48 78 -18 9 -25 8 -39 -8z"/>
<path d="M1033 993 c-19 -7 -15 -41 5 -52 20 -11 42 3 42 26 0 15 -30 32 -47
26z"/>
<path d="M1125 924 c-20 -20 -19 -31 4 -44 23 -12 54 12 45 35 -9 21 -32 26
-49 9z"/>
<path d="M220 905 c-17 -20 -3 -54 26 -61 50 -13 144 18 144 46 0 29 -147 42
-170 15z"/>
<path d="M422 897 c-15 -17 1 -42 23 -33 18 6 17 37 -1 43 -6 2 -16 -2 -22
-10z"/>
<path d="M357 829 c-15 -12 -34 -34 -42 -49 -13 -25 -13 -30 1 -44 22 -22 49
-3 73 53 27 64 17 76 -32 40z"/>
<path d="M922 696 c-117 -47 -184 -144 -133 -195 36 -36 86 -21 95 29 7 47 34
97 70 138 20 22 33 42 29 45 -4 3 -32 -5 -61 -17z"/>
</g>
</svg>
